<svg id="Layer_1" enable-background="new 0 0 512.408 512.408" height="512" viewBox="0 0 512.408 512.408" width="512" xmlns="http://www.w3.org/2000/svg"><g><g><path d="m356.515 60.484-8.429-13.05c-2.132-3.301-2.143-7.543-.027-10.855l8.268-12.941c2.506-3.922 3.304-8.789 1.814-13.198-2.101-6.215-7.87-10.235-14.226-10.235h-86.791c-8.284 0-15 6.716-15 15v53.418c0 8.284 6.716 15 15 15h86.368c4.666 0 9.208-1.958 12.12-5.604 4.102-5.138 4.358-12.184.903-17.535z" fill="#ff303f"/><g><path d="m255.274 137.04c-8.284 0-15-6.716-15-15v-106.836c0-8.284 6.716-15 15-15s10.703 0 15 0v121.836c0 8.284-6.716 15-15 15z" fill="#8c4a37"/></g><path d="m255.829 137.012c8.025-.295 14.444-6.875 14.444-14.972v-121.836h-14.444z" fill="#4e2c16"/></g><path d="m488.018 188.714-211.224-70.428c-13.593-4.692-28.369-4.685-41.957.022l-203.851 70.604z" fill="#f6e5c8"/><path d="m255.897 188.813 232.121-.1-211.224-70.428c-6.77-2.337-13.833-3.506-20.897-3.512z" fill="#edc88c"/><path d="m43.811 228.983v272.205c0 6.084 4.932-2.729 11.017-2.729h402.752c6.084 0 11.017 8.814 11.017 2.729v-272.205z" fill="#f6e5c8"/><path d="m255.897 499.143h201.683c6.084 0 11.017 8.129 11.017 2.045v-272.205h-212.7z" fill="#edc88c"/><g><path d="m139.775 512.204v-260.969c0-8.284 6.716-15 15-15s15 6.716 15 15v260.969z" fill="#de9d22"/></g><g><path d="m344.962 512.204v-260.969c0-8.284 6.716-15 15-15s15 6.716 15 15v260.969z" fill="#a46f00"/></g><path d="m306.216 506.574h-100.024v-101.678c0-27.621 22.391-50.012 50.012-50.012 27.621 0 50.012 22.391 50.012 50.012z" fill="#004960"/><g fill="#57a9ff"><circle cx="91.94" cy="306.86" r="15"/><circle cx="91.94" cy="368.351" r="15"/><circle cx="91.94" cy="429.842" r="15"/></g><g fill="#5258e8"><circle cx="420.644" cy="306.86" r="15"/><circle cx="420.644" cy="368.351" r="15"/><circle cx="420.644" cy="429.842" r="15"/></g><path d="m500.423 251.235h-489.018c-4.698 0-7.438-5.303-4.719-9.135l5.163-7.276c7.113-10.024 7.113-23.449 0-33.473l-5.163-7.276c-2.719-3.831.021-9.135 4.719-9.135h489.018c4.806 0 7.517 5.52 4.579 9.323l-4.747 6.146c-8.043 10.413-8.043 24.943 0 35.356l4.747 6.146c2.938 3.804.227 9.324-4.579 9.324z" fill="#e8ba6d"/><g><g><path d="m300.084 322.975h-87.761c-8.284 0-15-6.716-15-15s6.716-15 15-15h87.761c8.284 0 15 6.716 15 15s-6.715 15-15 15z" fill="#9ed0ff"/></g></g><path d="m505.003 194.264c2.938-3.804.227-9.323-4.579-9.323h-244.527v66.294h244.526c4.806 0 7.517-5.52 4.579-9.323l-4.747-6.146c-8.043-10.413-8.043-24.943 0-35.356z" fill="#de9d22"/><path d="m300.084 292.975h-44.187v30h44.187c8.284 0 15-6.716 15-15s-6.715-15-15-15z" fill="#57a9ff"/><path d="m256.204 354.884c-.117 0-.233.008-.35.009v151.681h50.361v-101.678c.001-27.621-22.39-50.012-50.011-50.012z" fill="#00242f"/><g><g><path d="m497.408 512.204h-482.408c-8.284 0-15-6.716-15-15s6.716-15 15-15h482.408c8.284 0 15 6.716 15 15s-6.716 15-15 15z" fill="#7fe881"/></g><path d="m497.408 482.204h-241.511v30h241.511c8.284 0 15-6.716 15-15s-6.716-15-15-15z" fill="#00d16c"/></g></g></svg>